<svg id="Calque_1" data-name="Calque 1" xmlns="http://www.w3.org/2000/svg" viewBox="0 0 400 400"><defs><style>.cls-1{fill:#2080a5;}</style></defs><title>SLR</title><path class="cls-1" d="M118.59,190.74a5,5,0,0,1-4.36,7.3H103.34a5,5,0,0,1-4.56-2.85A87,87,0,0,1,90.44,158,89.17,89.17,0,0,1,98.53,121a5,5,0,0,1,4.6-2.91h11a5,5,0,0,1,4.37,7.3C113.37,135.07,103,161.58,118.59,190.74Zm14.2-16.21a59,59,0,0,1,0-33,5,5,0,0,1,4.82-3.51h10.54a4.92,4.92,0,0,1,4.64,6.62,39.11,39.11,0,0,0,0,26.76,4.92,4.92,0,0,1-4.64,6.62H137.61A5,5,0,0,1,132.79,174.53Zm114.92,92.74a5,5,0,0,1-2.69,6.54l-9.23,3.85a5,5,0,0,1-6.53-2.7L213.88,238H167L151.62,275a5,5,0,0,1-6.54,2.7l-9.22-3.85a5,5,0,0,1-2.69-6.54L174,169.33a20,20,0,1,1,33,0ZM205.56,218l-15.12-36.31L175.32,218Zm42.52-76.48a58.76,58.76,0,0,1,0,33,5,5,0,0,1-4.81,3.51H232.73a4.93,4.93,0,0,1-4.65-6.62,39.11,39.11,0,0,0,0-26.76,4.93,4.93,0,0,1,4.65-6.62h10.54A5,5,0,0,1,248.08,141.56ZM290.44,158a89,89,0,0,1-8.12,37.1,5,5,0,0,1-4.6,2.9h-11a5,5,0,0,1-4.34-7.35c15-28.06,5.62-54.67-.09-65.38a4.94,4.94,0,0,1,4.38-7.27h11.07a5,5,0,0,1,4.6,2.91A89.18,89.18,0,0,1,290.44,158Z"/></svg>