<svg id="Calque_1" data-name="Calque 1" xmlns="http://www.w3.org/2000/svg" viewBox="0 0 400 400"><defs><style>.cls-1{fill:#2080a5;}</style></defs><title>SLR</title><path class="cls-1" d="M189.43,233.57,150.8,272.19a20,20,0,1,1-28.28-28.28l47.63-47.66L187.86,214A33.55,33.55,0,0,0,189.43,233.57Zm83.84,24.59L256.8,274.63a11.62,11.62,0,0,1-16.47,0L203.74,238a23.24,23.24,0,0,1-4.34-26.68L166.08,178h-19.4l-30-40,20-20,40,30v19.41L210,200.75a23.21,23.21,0,0,1,26.69,4.35l36.59,36.59A11.68,11.68,0,0,1,273.27,258.16ZM144.18,258a7.5,7.5,0,1,0-7.5,7.5A7.49,7.49,0,0,0,144.18,258Zm68.43-68.78L187,163.6a44.32,44.32,0,0,1,12.87-32.38,45,45,0,0,1,42.69-11.84,3.77,3.77,0,0,1,1.78,6.31l-23.25,23.25,3.53,21.22,21.22,3.53,23.25-23.25a3.74,3.74,0,0,1,6.28,1.72,45,45,0,0,1-11.84,42.72,44.3,44.3,0,0,1-13.69,9.22L243.74,198a32.87,32.87,0,0,0-23.41-9.68A34.33,34.33,0,0,0,212.61,189.25Z"/></svg>