<svg id="Calque_1" data-name="Calque 1" xmlns="http://www.w3.org/2000/svg" viewBox="0 0 400 400"><defs><style>.cls-1{fill:#2080a5;}</style></defs><title>SLR</title><path class="cls-1" d="M280,208v15a11,11,0,0,1-5.53,9L270,234.23A35,35,0,0,1,235,268h-7.5a7.5,7.5,0,0,1-7.5-7.5v-55a7.5,7.5,0,0,1,7.5-7.5H235a34.91,34.91,0,0,1,25,10.51V208a60,60,0,1,0-120,0v.51A34.91,34.91,0,0,1,165,198h7.5a7.5,7.5,0,0,1,7.5,7.5v55a7.5,7.5,0,0,1-7.5,7.5H165a35,35,0,0,1-35-33.81L125.53,232a11,11,0,0,1-5.53-9V208a80,80,0,1,1,160,0Z"/></svg>