<svg id="Calque_1" data-name="Calque 1" xmlns="http://www.w3.org/2000/svg" viewBox="0 0 400 400"><defs><style>.cls-1{fill:#2080a5;}</style></defs><title>SLR</title><path class="cls-1" d="M185.14,145.55v105a7.51,7.51,0,0,1-12.81,5.31L144.53,228H112.64a7.5,7.5,0,0,1-7.5-7.5v-45a7.5,7.5,0,0,1,7.5-7.5h31.89l27.8-27.8A7.51,7.51,0,0,1,185.14,145.55Zm40,52.49a27.48,27.48,0,0,1-14.3,24,7.5,7.5,0,0,1-7.24-13.14,12.32,12.32,0,0,0,0-21.76A7.5,7.5,0,1,1,210.83,174,27.44,27.44,0,0,1,225.14,198Zm3.19,48.83A7.48,7.48,0,0,1,218,244.53a7.59,7.59,0,0,1,2.32-10.42,42.71,42.71,0,0,0,0-72.14A7.59,7.59,0,0,1,218,151.55a7.46,7.46,0,0,1,10.35-2.33,57.86,57.86,0,0,1,0,97.65ZM285.14,198a88,88,0,0,1-39.89,73.76,7.56,7.56,0,1,1-8.3-12.64,73,73,0,0,0,0-122.24,7.56,7.56,0,1,1,8.3-12.64A88,88,0,0,1,285.14,198Z"/></svg>