<svg id="Calque_1" data-name="Calque 1" xmlns="http://www.w3.org/2000/svg" viewBox="0 0 400 400"><defs><style>.cls-1{fill:#2080a5;}</style></defs><title>SLR</title><path class="cls-1" d="M245.35,278H149.66c-17.37,0-27.93-19.19-18.78-33.9l36.63-58.91V138H165a7.48,7.48,0,0,1-7.5-7.5v-5A7.48,7.48,0,0,1,165,118h65a7.49,7.49,0,0,1,7.5,7.5v5A7.48,7.48,0,0,1,230,138h-2.5v47.19l36.62,58.91C273.29,258.82,262.76,278,245.35,278Zm-21-60-15.06-24.25a10,10,0,0,1-1.81-5.75V138h-20v50a9.86,9.86,0,0,1-1.82,5.75L170.6,218Z"/></svg>